<svg width="375" height="387" viewBox="0 0 375 387" fill="none" xmlns="http://www.w3.org/2000/svg">
<path opacity="0.08" fill-rule="evenodd" clip-rule="evenodd" d="M150.393 330.947C115.356 316.141 81.6063 298.36 62.1132 265.772C40.5054 229.648 26.1241 186.103 40.0623 146.498C54.0713 106.692 93.252 83.1889 132.185 66.6638C169.477 50.8355 212.335 40.2492 248.908 57.8535C283.356 74.4353 290.944 116.75 307.576 151.088C324.494 186.019 352.765 218.576 345.145 256.552C336.723 298.523 307.257 337.119 267.175 352.431C228.802 367.089 188.298 346.966 150.393 330.947Z" fill="white"/>
<path opacity="0.3" d="M280.955 316.08L253.554 310.6L230.719 305.576L238.026 277.718C243.506 264.2 256.141 261.125 261.774 261.277C266.645 261.734 277.576 264.474 282.325 271.781C287.075 279.088 287.349 287.004 286.892 290.049L280.955 316.08Z" fill="black"/>
<path opacity="0.3" d="M137.097 142.537C127.598 165.189 145.013 180.899 154.908 185.923V188.663L151.255 196.427L152.168 198.254L151.255 200.994L147.144 203.277L145.774 203.734V205.104H150.798C154.817 207.661 152.472 210.737 150.798 211.954L143.947 215.151C144.252 215.303 146.048 215.882 150.798 216.978C155.547 218.074 153.081 221.697 151.255 223.372L138.011 231.135L121.113 270.868H128.42C152.625 236.616 152.168 243.923 157.192 238.442L161.758 210.584L165.412 205.104L176.373 208.301L183.223 217.891L186.877 218.348L188.703 217.435L189.16 216.521H190.987H193.27L201.491 221.088L201.947 222.458V224.285L199.207 230.679C200.425 230.07 203.226 229.491 204.687 232.049C206.149 234.606 201.643 238.595 199.207 240.269C216.744 251.23 220.519 265.235 220.215 270.868H228.435L191.9 189.576V187.75C200.577 179.073 208.375 171.765 207.884 155.325C207.154 130.846 187.79 120.464 178.199 118.333C168.457 116.963 146.596 119.885 137.097 142.537Z" fill="black"/>
<path fill-rule="evenodd" clip-rule="evenodd" d="M171.896 99.4006C171.896 103.739 172.126 106.5 172.486 106.5C172.847 106.5 173.076 103.739 173.076 99.4006C173.076 95.0623 172.847 92.3013 172.486 92.3013C172.126 92.3013 171.896 95.0623 171.896 99.4006ZM164.126 117.2C159.298 117.843 153.528 119.894 149.087 122.546C144.797 125.107 138.527 131.393 135.973 135.693C131.9 142.551 129.655 152.016 130.395 159.21L130.729 162.454L124.906 162.232C112.465 161.756 101.631 165.978 92.5737 174.831C80.6431 186.491 74.5303 202.82 74.5303 223.027C74.5303 235.793 76.9816 242.756 83.9253 249.714C90.5698 256.373 97.5949 258.835 108.803 258.434L115.668 258.189L114.267 261.363C113.497 263.109 112.198 265.861 111.381 267.478C110.563 269.096 110.048 270.671 110.237 270.977C110.444 271.313 122.073 271.539 139.526 271.547C155.446 271.554 168.68 271.689 168.935 271.848C169.191 272.006 169.579 273.332 169.797 274.795C170.386 278.731 173.966 285.409 177.253 288.705C184.625 296.096 197.269 298.825 207.082 295.144C215.3 292.061 219.633 285.802 220.644 275.552L221.037 271.559H224.757C226.802 271.559 228.593 271.359 228.736 271.115C229.123 270.454 222.859 256.103 211.888 232.512C203.053 213.516 197.441 200.835 193.806 191.657L192.504 188.367L197.106 183.67C204.827 175.79 208.482 166.957 208.482 156.183C208.482 149.32 207.47 145.062 204.263 138.447C200.98 131.674 193.778 124.363 187.239 121.166C179.817 117.538 171.855 116.171 164.126 117.2ZM178.387 119.253C188.214 121.568 198.17 129.331 202.779 138.269C210.749 153.727 208.063 170.892 195.747 183.221L190.911 188.061L197.83 204.223C201.637 213.112 207.72 226.712 211.35 234.446C218.667 250.04 219.597 252.085 224.139 262.565L227.291 269.841L223.985 269.664L220.678 269.488L219.902 265.642C217.95 255.964 211.296 247.396 200.278 240.371C200.147 240.287 201.275 239.066 202.786 237.656C204.814 235.762 205.532 234.651 205.532 233.405C205.532 231.186 203.989 229.554 201.89 229.554H200.201L201.686 226.616C204.16 221.722 203.87 221.129 197.221 217.485C192.796 215.059 190.984 214.855 188.848 216.539C186.967 218.023 184.885 218.1 184.861 216.687C184.831 214.896 181.664 207.703 179.964 205.568C175.239 199.63 164.938 199.652 161.267 205.605C159.393 208.646 158.362 213.913 157.745 223.601C156.805 238.346 156.941 237.809 153.527 240.153C148.519 243.59 141.066 252.292 131.569 265.79L128.76 269.784H120.281H111.802L116.37 259.578C118.883 253.965 122.064 246.711 123.44 243.457L125.943 237.541L131.271 234.685C136.184 232.05 136.566 231.936 136.17 233.206C135.713 234.67 125.817 258.308 123.281 263.992C121.763 267.394 122.136 269.477 123.712 266.402C124.597 264.674 135.446 239.089 137.455 233.991C138.589 231.114 138.804 230.936 145.331 227.484C151.918 224 154.182 221.944 154.19 219.441C154.196 217.84 151.942 216.347 148.474 215.653L145.159 214.989L148.348 213.628C150.103 212.88 152.002 211.856 152.571 211.354C154.873 209.315 152.963 204.707 149.816 204.707C146.737 204.707 146.342 204.006 148.799 202.904C151.368 201.751 153.226 199.447 152.911 197.805C152.622 196.302 149.02 194.06 146.877 194.049C143.771 194.034 143.533 193.508 145.026 189.968L146.374 186.769L142.324 182.708C139.161 179.537 137.703 177.452 135.668 173.189C134.236 170.188 132.727 166.267 132.316 164.477C131.259 159.881 131.408 151.325 132.624 146.729C135.372 136.346 142.85 126.981 151.943 122.536C158.472 119.344 161.689 118.702 155.669 121.792C149.595 124.911 144.937 128.679 141.456 133.29C134.662 142.29 132.143 152.841 134.447 162.642C136.496 171.355 143.174 180.055 150.88 184.05C153.024 185.161 154.78 186.239 154.781 186.444C154.782 186.65 154.122 188.58 153.314 190.734C152.276 193.498 152.062 194.649 152.587 194.649C153.204 194.649 156.597 186.985 156.564 185.665C156.558 185.441 154.788 184.386 152.629 183.321C138.554 176.374 131.856 160.354 136.712 145.25C140.915 132.18 153.124 121.864 167.81 118.975C171.764 118.198 174.175 118.261 178.387 119.253ZM215.416 122.848C211.342 126.3 210.071 127.798 211.213 127.798C211.635 127.798 221.464 119.511 221.464 119.156C221.464 118.228 219.327 119.533 215.416 122.848ZM112.627 123.008C112.461 123.277 114.775 124.59 117.769 125.927C124.186 128.791 124.339 128.841 124.577 128.159C124.678 127.869 122.686 126.717 120.151 125.598C113.437 122.634 112.959 122.469 112.627 123.008ZM96.9086 147.867C95.4965 149.283 95.1837 150.095 95.1837 152.35C95.1837 158.267 101.364 160.766 105.569 156.55C108.259 153.853 108.316 151.165 105.744 148.229C104.16 146.42 103.556 146.138 101.273 146.138C99.1427 146.138 98.3012 146.471 96.9086 147.867ZM78.075 148.277C78.0874 149.868 87.2021 153.829 90.8536 153.829C93.1514 153.829 92.3454 152.061 89.1429 150.076C86.9802 148.735 85.4253 148.281 82.2128 148.05C79.935 147.887 78.0727 147.989 78.075 148.277ZM105.323 150.999C104.9 151.423 104.625 151.458 104.625 151.088C104.625 150.298 105.323 149.598 105.717 149.993C105.885 150.161 105.707 150.614 105.323 150.999ZM101.675 152.645C101.675 152.971 100.464 153.237 98.9845 153.237C97.3411 153.237 96.4359 153.007 96.659 152.645C96.8596 152.32 98.0699 152.054 99.3492 152.054C100.629 152.054 101.675 152.32 101.675 152.645ZM105.548 154.94C105.064 155.877 104.239 156.808 103.714 157.011C102.111 157.627 99.0028 157.421 98.231 156.647C97.6515 156.066 98.2652 155.649 101.211 154.622C106.322 152.841 106.619 152.862 105.548 154.94ZM87.8075 156.055C85.6737 156.756 83.8249 158.053 81.1264 160.739C78.949 162.907 77.5687 164.733 77.8101 165.125C78.5064 166.254 83.2213 165.339 86.1889 163.5C89.0143 161.748 92.8233 157.358 92.8233 155.853C92.8233 154.783 91.5145 154.836 87.8075 156.055ZM129.728 163.634C130.62 163.875 131.282 165.091 132.287 168.337C134.008 173.896 137.032 178.907 141.41 183.461L144.855 187.043L143.597 190.15L142.339 193.258L137.383 193.923C131.715 194.683 128.28 195.997 121.039 200.175C117.569 202.177 115.808 203.562 115.581 204.466C114.774 207.689 117.755 222.092 121.14 231.329C122.153 234.095 123.121 236.781 123.29 237.299C123.476 237.872 122.236 239.954 120.118 242.623C111.927 252.945 107.654 255.827 100.495 255.86C96.5911 255.879 95.5466 255.628 91.6431 253.736C79.4441 247.822 74.1114 235.455 75.7141 216.795C77.1698 199.844 82.8106 186.342 92.5147 176.576C99.1238 169.925 106.077 165.974 114.362 164.163C117.964 163.375 127.541 163.046 129.728 163.634ZM217.334 168.526C217.334 168.873 218.196 169.297 219.252 169.469C220.307 169.642 222.745 170.053 224.671 170.384C228.98 171.124 231.671 171.156 231.243 170.463C231.066 170.175 228.727 169.63 226.045 169.252C223.363 168.873 220.307 168.413 219.252 168.229C218.079 168.025 217.334 168.141 217.334 168.526ZM149.279 195.952C150.137 196.375 151.129 197.201 151.484 197.789C152.416 199.336 149.229 202.079 145.845 202.645C142.954 203.128 138.851 204.637 138.851 205.217C138.851 205.427 141.485 205.614 144.704 205.633C150.986 205.668 152.423 206.208 152.423 208.533C152.423 210.045 151.012 211.47 148.883 212.108C146.05 212.958 141.761 215.403 142.109 215.969C142.303 216.282 143.707 216.541 145.229 216.543C151.423 216.55 154.17 218.527 152.191 221.555C151.264 222.974 124.913 237.076 124.313 236.474C124.147 236.308 122.998 233.286 121.758 229.757C119.32 222.818 117.345 214.387 116.713 208.227L116.315 204.353L119.764 202.234C126 198.403 131.681 195.953 136.49 195.019C139.046 194.523 147.652 195.151 149.279 195.952ZM226.775 197.408C226.775 197.623 227.428 198.917 228.227 200.283C233.632 209.529 234.715 223.564 230.829 233.991C229.536 237.459 229.571 237.245 230.308 237.245C231.936 237.245 234.447 226.836 234.447 220.089C234.447 217.451 234.02 213.377 233.499 211.035C232.457 206.351 228.398 197.016 227.404 197.016C227.058 197.016 226.775 197.192 226.775 197.408ZM105.964 204.115C106.133 204.929 106.446 206.393 106.661 207.369C107.025 209.028 106.793 209.334 103.109 212.045C96.9534 216.575 90.1897 222.494 89.9519 223.558C89.7542 224.443 89.8298 224.446 90.8371 223.59C99.7658 216.005 102.268 214.028 111.371 207.364C112.647 206.43 113.385 205.563 113.011 205.439C112.638 205.314 111.419 205.91 110.304 206.762L108.276 208.313L107.559 206.066C106.698 203.364 105.506 201.907 105.964 204.115ZM219.898 205.003C220.06 205.653 220.862 207.782 221.682 209.733C224.154 215.618 224.174 221.159 221.748 228.815C221.496 229.611 221.572 230.146 221.938 230.146C222.275 230.146 223.036 228.748 223.63 227.04C225.184 222.57 225.021 214.413 223.287 209.908C221.939 206.404 219.296 202.579 219.898 205.003ZM135.31 205.681C132.665 206.546 129.999 207.915 129.999 208.41C129.999 208.72 130.464 208.785 131.032 208.553C131.6 208.321 133.193 207.735 134.573 207.251C135.952 206.767 137.081 206.129 137.081 205.834C137.081 205.259 136.704 205.226 135.31 205.681ZM174.302 211.169C175.479 212.349 176.027 213.491 176.027 214.764C176.027 217.309 173.255 220.089 170.716 220.089C168.177 220.089 165.405 217.309 165.405 214.764C165.405 213.491 165.953 212.349 167.13 211.169C168.307 209.989 169.446 209.44 170.716 209.44C171.986 209.44 173.125 209.989 174.302 211.169ZM212.023 210.993C212.023 211.235 212.547 212.518 213.187 213.844C214.512 216.588 214.862 220.284 214.186 224.378C213.522 228.391 214.725 227.982 215.569 223.907C216.344 220.167 215.922 216.64 214.321 213.473C213.273 211.4 212.023 210.05 212.023 210.993ZM135.753 217.762C133.876 218.756 132.788 220.089 133.855 220.089C134.414 220.089 140.031 217.12 140.031 216.825C140.031 216.182 137.828 216.664 135.753 217.762ZM196.582 218.56C202.397 221.496 202.535 221.765 200.463 226.132C198.351 230.583 197.642 231.329 195.517 231.329C193.989 231.329 193.786 231.066 193.118 228.223C192.331 224.877 190.022 219.828 188.982 219.184C188.089 218.631 190.061 216.539 191.476 216.539C192.082 216.539 194.38 217.448 196.582 218.56ZM187.511 219.274C188.808 219.773 190.531 223.303 191.859 228.181C192.857 231.842 193.112 232.235 194.61 232.412C195.518 232.52 197.429 232.16 198.855 231.614C202.154 230.351 204.352 230.815 204.352 232.774C204.352 234.487 201.903 237.546 199.561 238.761C198.625 239.246 197.861 239.835 197.861 240.071C197.861 240.308 199.122 241.164 200.663 241.974C205.216 244.366 213.301 252.802 215.694 257.656C218.673 263.7 219.407 266.91 219.344 273.629C219.301 278.264 218.997 280.314 217.941 283.095C211.487 300.092 184.015 299.755 173.962 282.557C171.958 279.129 170.126 272.838 170.126 269.384C170.126 268.012 171.093 263.215 172.275 258.723C175.279 247.301 175.255 248.023 172.846 242.059C170.323 235.812 170.212 234.147 172.187 232.167C173.418 230.933 173.861 230.8 174.89 231.352C175.567 231.716 176.657 232.924 177.312 234.038C178.54 236.124 180.048 236.892 179.252 235.027C179.01 234.457 178.26 232.182 177.587 229.97C176.169 225.31 176.556 224.041 179.485 223.748C181.053 223.592 181.512 223.857 182.376 225.42C184.654 229.538 184.904 229.532 184.512 225.36C184.022 220.153 184.942 218.286 187.511 219.274ZM199.322 223.683C199.108 224.358 199.104 225.082 199.314 225.292C199.757 225.736 200.789 224.28 200.802 223.195C200.817 221.995 199.744 222.349 199.322 223.683ZM187.341 234.537C187.447 235.488 187.894 236.385 188.333 236.53C188.927 236.726 189.024 236.433 188.71 235.392C188.027 233.132 187.121 232.566 187.341 234.537ZM170.21 237.689C170.728 239.56 171.771 242.713 172.525 244.696L173.898 248.301L171.983 254.966C170.93 258.631 169.755 263.597 169.374 266.002L168.68 270.375H163.588C160.788 270.375 156.901 270.208 154.949 270.004L151.402 269.632L151.898 267.489C152.71 263.985 152.49 253.497 151.504 248.71C150.791 245.247 150.742 244.062 151.287 243.405C153.597 240.613 165.229 234.426 168.368 234.318C168.968 234.297 169.58 235.418 170.21 237.689ZM179.586 237.936C179.56 239.328 180.188 240.795 180.811 240.795C181.617 240.795 181.439 239.38 180.472 238.098C179.724 237.107 179.602 237.085 179.586 237.936ZM266.308 239.537C259.533 241.766 256.536 245.966 253.197 257.91C251.945 262.391 251.925 262.419 248.43 264.465C244.24 266.919 240.375 271.063 238.288 275.339C236.564 278.871 229.599 305.723 230.295 306.154C230.976 306.576 281.154 317.219 281.383 316.99C281.492 316.88 282.947 311.073 284.617 304.085C288.732 286.866 288.72 282.609 284.534 274.206L283.304 271.737L285.796 264.105C288.665 255.315 288.947 251.789 287.075 248.111C284.589 243.226 278.248 239.574 271.678 239.246C269.538 239.138 267.121 239.27 266.308 239.537ZM276.14 241.085C282.342 242.932 287.037 247.979 287.111 252.879C287.153 255.681 282.954 270.531 282.201 270.241C281.971 270.152 280.55 268.934 279.041 267.533L276.3 264.986L277.502 260.692C278.163 258.33 278.704 255.395 278.704 254.171C278.704 248.31 269.419 245.612 265.465 250.323C264.635 251.311 263.383 254.098 262.683 256.515C261.452 260.761 261.347 260.91 259.578 260.91C258.571 260.91 256.838 261.171 255.725 261.491C254.613 261.811 253.621 261.991 253.521 261.891C253.143 261.511 256.435 251.099 257.749 248.522C261.351 241.46 268.156 238.708 276.14 241.085ZM122.128 243.309C118.289 252.47 116.773 255.945 116.448 256.326C115.765 257.13 106.788 257.97 104.92 257.405C103.673 257.028 103.499 256.851 104.33 256.806C108.048 256.605 114.455 251.633 120.04 244.616C121.454 242.84 122.683 241.387 122.772 241.387C122.861 241.387 122.571 242.251 122.128 243.309ZM197.861 241.619C197.861 241.877 198.373 244.659 198.998 247.801C200.551 255.601 200.983 262.555 200.308 268.896C199.997 271.825 199.849 274.331 199.981 274.467C201.346 275.87 202.266 264.518 201.462 256.194C200.799 249.331 199.41 242.755 198.403 241.712C198.105 241.403 197.861 241.361 197.861 241.619ZM87.5125 244.787C87.5125 245.874 90.1856 248.677 90.9722 248.414C91.4065 248.269 90.8636 247.369 89.602 246.143C88.4531 245.026 87.5125 244.416 87.5125 244.787ZM150.663 250.92C151.399 255.66 151.197 267.13 150.338 269.34C149.978 270.269 148.915 270.375 139.968 270.375C134.485 270.375 129.999 270.288 129.999 270.182C129.999 270.077 132.721 266.237 136.048 261.651C142.737 252.429 148.717 245.355 149.443 245.805C149.703 245.966 150.252 248.268 150.663 250.92ZM275.03 250.263C277.916 252.027 278.261 253.584 276.887 258.656C276.242 261.034 275.608 263.29 275.477 263.669C275.312 264.146 274.182 263.922 271.808 262.944C269.921 262.167 267.116 261.356 265.574 261.144C264.032 260.931 262.771 260.62 262.771 260.453C262.771 260.287 263.308 258.343 263.964 256.135C265.912 249.578 270.193 247.306 275.03 250.263ZM271.798 264.316C280.936 268.603 286.375 276.945 286.375 286.673C286.375 289.662 285.571 294.411 283.712 302.406C282.248 308.705 280.854 314.278 280.614 314.791C280.234 315.606 277.157 315.076 256.095 310.562C242.848 307.724 231.88 305.27 231.72 305.11C231.204 304.593 237.849 279.362 239.389 275.989C240.217 274.176 242.294 271.305 244.052 269.542C249.519 264.061 254.874 262.008 262.874 262.327C267.065 262.494 268.682 262.854 271.798 264.316ZM261.23 274.269C258.672 275.534 257.81 277.421 258.217 280.865L258.554 283.717L252.548 290.427C245.736 298.039 245.289 298.6 245.707 299.018C246.197 299.51 266.858 304.338 267.163 304.032C267.317 303.878 266.688 299.535 265.766 294.38L264.089 285.008L266.017 283.311C269.381 280.349 269.051 275.701 265.366 274.157C263.018 273.174 263.467 273.162 261.23 274.269ZM266.769 277.004C267.403 278.336 267.384 278.954 266.656 280.701C266.175 281.855 265.569 282.807 265.309 282.818C265.049 282.828 264.375 283.188 263.811 283.617C262.843 284.354 262.867 284.857 264.254 292.784C265.061 297.398 265.722 301.521 265.722 301.947C265.722 302.53 263.49 302.21 256.723 300.658C251.774 299.522 247.626 298.513 247.507 298.416C247.387 298.319 250.115 295.059 253.567 291.173L259.845 284.107L259.465 280.864C259.133 278.028 259.247 277.458 260.372 276.33C262.247 274.45 265.729 274.817 266.769 277.004ZM100.154 281.619C95.2292 285.494 93.8111 286.953 94.9872 286.931C95.6222 286.92 106.038 278.696 106.297 278.001C106.766 276.748 105.083 277.739 100.154 281.619ZM148.569 288.271C149.05 295.488 149.401 297.589 150.125 297.589C150.508 297.589 150.597 296.039 150.372 293.3C149.673 284.77 149.378 282.799 148.796 282.799C148.416 282.799 148.335 284.763 148.569 288.271ZM196.975 292.241C195.169 292.548 194.858 292.751 195.652 293.11C196.916 293.681 200.811 293.022 200.811 292.238C200.811 291.631 200.576 291.631 196.975 292.241Z" fill="white"/>
<path d="M259.491 284.112L246.246 298.726L266.341 303.75L263.601 284.569C265.793 283.107 267.254 280.915 267.711 280.002C268.015 278.327 267.711 274.887 264.057 274.521C260.404 274.156 258.882 277.414 258.577 279.088L259.491 284.112Z" fill="#59C9CC"/>
</svg>
