<svg width="207" height="195" viewBox="0 0 207 195" fill="none" xmlns="http://www.w3.org/2000/svg">
<path d="M10.1261 81.8494C9.68995 86.3656 10.4895 101.832 10.9437 109L69 109V72.4409L67.9097 70.5592L67.0921 68.1398L67.9097 64.3764L69 60.8817V59L63.2762 62.4946L58.9151 64.3764L56.4621 64.914L54.2815 64.3764L53.1913 63.5699L52.6462 62.7634V61.4194L53.7364 59.8064C47.5583 59.6271 32.967 59.3763 24.0269 59.8064C15.0868 60.2365 11.5798 67.154 10.9439 70.5591C10.853 72.4408 10.5622 77.3333 10.1261 81.8494Z" fill="#009FA3"/>
<path fill-rule="evenodd" clip-rule="evenodd" d="M123.684 2.89163C123.153 7.29303 123.266 14.0912 123.876 14.4671C124.22 14.679 124.424 13.4277 124.426 11.0947C124.428 9.05468 124.587 5.73075 124.778 3.70872C125.195 -0.69595 124.205 -1.43514 123.684 2.89163ZM113.778 7.18517C114.552 9.71706 117.882 16.5409 118.192 16.2309C118.65 15.775 114.761 6.35283 114.012 6.10443C113.586 5.96226 113.51 6.31143 113.778 7.18517ZM131.226 14.764C129.658 16.3513 128.899 17.4631 129.382 17.4631C130.448 17.4631 135.061 12.785 134.398 12.3764C134.12 12.2048 132.693 13.2796 131.226 14.764ZM117.048 24.209C113.743 24.9155 109.073 26.1504 106.669 26.9528C98.1859 29.787 84.3188 37.0161 73.5052 44.243L68.7468 47.4231L62.3071 47.4264C54.9562 47.4296 52.114 48.0289 50.9341 49.8248C49.202 52.4613 51.8169 54.3875 58.0136 55.0395C60.1385 55.2634 61.5702 55.4796 61.1955 55.5199C60.8207 55.5608 58.9771 56.3153 57.0986 57.1966L53.6829 58.7987L37.2954 58.967C21.9408 59.1244 20.75 59.2078 18.4011 60.2912C15.3596 61.6939 12.4552 64.4938 11.0715 67.3585C9.56442 70.4771 8.94388 81.7203 9.42731 97.1497L9.83209 110.067H26.9778H44.1235V142.206V174.345H38.661C35.3835 174.345 33.1985 174.563 33.1985 174.889C33.1985 175.239 38.3879 175.434 47.6741 175.434C56.9604 175.434 62.1498 175.239 62.1498 174.889C62.1498 174.561 59.8735 174.345 56.4141 174.345H50.6785V142.213V110.08L70.2069 109.938L89.7354 109.794L89.6021 90.4566C89.5251 79.3311 89.2181 69.9018 88.8794 68.2535C88.1868 64.8865 86.3716 62.5257 83.2558 60.9405C81.2876 59.9393 81.1445 59.7481 82.0955 59.3881C111.812 48.1351 114.348 47.2733 118.511 47.0091C124.055 46.6572 126.727 47.8796 130.17 52.3409C133.114 56.1567 136.228 62.164 136.746 65.0276L137.122 67.1068L131.079 62.9691C127.756 60.6932 123.878 58.3198 122.462 57.6956C115.677 54.7023 109.665 59.2383 109.679 67.3416C109.685 70.9014 111.115 74.5969 114.081 78.715L115.775 81.0677L113.208 84.5365C105.596 94.8253 97.1578 117.95 87.2429 155.698L86.0597 160.201L77.6556 167.847C70.6538 174.218 69.251 175.747 69.251 177.014C69.251 177.849 69.7006 178.939 70.2501 179.435C72.1281 181.13 74.9828 180.561 81.4269 177.204C85.0748 175.304 87.5253 174.314 87.6558 174.688C88.0071 175.693 99.321 192.487 100.544 193.819C101.864 195.255 103.245 195.386 104.445 194.189C105.589 193.047 105.527 190.595 104.211 184.967C103.61 182.397 103.119 180.031 103.119 179.709C103.119 179.387 105.365 181.255 108.11 183.86C113.932 189.385 116.074 190.635 118.126 189.703C119.077 189.271 119.506 188.644 119.506 187.687C119.506 186.307 117.338 181.68 115.108 178.3L113.945 176.537L117.667 178.706C122.635 181.6 126.373 182.842 127.446 181.955C127.886 181.591 128.246 180.657 128.246 179.88C128.246 178.066 121.846 171.73 116.638 168.388C114.61 167.087 112.951 165.75 112.951 165.417C112.951 164.908 116.349 152.225 119.279 141.797L120.083 138.937H157.154C191.951 138.937 194.249 138.996 194.605 139.891C194.814 140.415 197.554 147.697 200.695 156.073C203.835 164.449 206.518 171.415 206.655 171.552C208.15 173.043 205.52 165.654 183.895 107.616C171.188 73.515 159.619 48.0512 151.845 37.0733C147.933 31.5503 143.61 27.631 138.834 25.2772C134.834 23.3058 134.295 23.186 128.832 23.0591C124.431 22.9567 121.627 23.2307 117.048 24.209ZM138.268 26.0382C143.072 28.3075 148.326 33.4906 152.773 40.3476C158.364 48.968 167.978 69.356 175.633 88.8224C178.101 95.0966 193.796 137.291 193.796 137.65C193.796 137.755 177.023 137.903 156.523 137.98L119.25 138.12L117.656 143.976L116.062 149.832H103.036C94.8221 149.832 90.0085 149.633 90.0085 149.294C90.0085 148.046 97.2758 123.799 100.096 115.637C105.626 99.6331 111.376 87.5755 115.552 83.227C120.035 78.5592 126.756 80.8825 133.523 89.4374C135.033 91.3461 139.21 97.3202 142.806 102.713C158.074 125.611 161.289 129.132 166.932 129.132C173.532 129.132 185.71 118.189 184.026 113.772C182.09 108.695 157.798 83.3806 145.453 73.5755C138.928 68.3935 138.319 67.7556 137.947 65.7162C137.358 62.4767 136.12 59.6288 133.406 55.2645C130.554 50.6795 127.039 47.2848 124.165 46.3391C120.541 45.1462 115.057 45.8913 108.308 48.4946C99.2019 52.0065 100.423 52.5555 97.2578 43.5229C95.7523 39.2266 94.361 35.1972 94.166 34.5681C93.853 33.5593 94.3845 33.1632 98.6934 31.1946C108.861 26.5502 119.757 23.9769 128.519 24.1523C134.032 24.2624 134.837 24.4182 138.268 26.0382ZM137.536 31.4898C137.541 32.0656 141.319 34.5675 141.665 34.2238C141.821 34.068 141.182 33.2972 140.245 32.5107C138.554 31.0916 137.529 30.7054 137.536 31.4898ZM95.8813 42.6611C97.4583 47.2276 98.7491 51.2133 98.7491 51.5184C98.7485 51.8234 93.8563 53.8939 87.8771 56.1191L77.005 60.1643L75.2472 64.8244C74.2803 67.3874 73.1179 69.9073 72.6634 70.4237C71.3716 71.8945 69.8437 72.1467 68.6654 71.0834C67.4145 69.9541 67.337 68.0285 68.3748 63.8434C69.7923 58.1265 69.8404 57.7729 69.2035 57.7729C68.8659 57.7729 67.84 58.4016 66.924 59.1702C64.4615 61.2363 58.0452 64.3097 56.1934 64.3097C54.5274 64.3097 52.8635 63.1129 52.8635 61.9145C52.8635 60.5984 55.3648 58.9245 60.3744 56.8894C63.1538 55.7602 65.4273 54.6391 65.4273 54.3978C65.4273 54.157 63.2073 53.9598 60.4935 53.9598C54.0429 53.9598 50.708 52.6683 51.5443 50.4948C52.0911 49.0736 55.2807 48.4385 62.5578 48.3023L69.5351 48.1721L74.719 44.6913C80.4054 40.8728 91.6003 34.3546 92.4667 34.3573C92.7671 34.3578 94.3037 38.0952 95.8813 42.6611ZM69.6607 49.6456C68.1847 50.503 68.5272 51.2934 70.0704 50.5923C70.8215 50.2513 71.436 49.766 71.436 49.5143C71.436 48.9162 70.8417 48.9598 69.6607 49.6456ZM7.05112 54.2567C4.39252 57.1574 0.839712 63.4866 0.108283 66.6248C-0.341827 68.5536 0.726092 68.6201 1.21116 66.6934C2.01033 63.5171 5.23047 57.9173 7.93441 55.0008C9.51198 53.2996 10.8022 51.7564 10.8022 51.5718C10.8022 50.6343 9.54858 51.532 7.05112 54.2567ZM71.7091 54.5046C71.1656 55.1038 70.9427 55.5864 71.2148 55.5766C71.8501 55.5543 73.621 54.2197 73.621 53.7637C73.621 53.0719 72.6776 53.4375 71.7091 54.5046ZM11.3736 58.7262C7.75306 62.4652 3.08862 70.8464 4.62796 70.8464C4.87814 70.8464 5.88597 69.1262 6.86868 67.024C8.03547 64.5259 9.90091 61.8835 12.2525 59.3979C14.2316 57.3056 15.5257 55.594 15.1285 55.594C14.7314 55.594 13.0419 57.0038 11.3736 58.7262ZM51.9879 61.3436C51.7295 62.3693 51.9677 63.0862 52.8919 64.0673C55.1037 66.415 59.3355 65.5593 65.2721 61.5637C66.6312 60.6491 67.8504 60.0074 67.9815 60.1381C68.1126 60.2689 67.8373 61.848 67.3697 63.6473C66.3073 67.7349 66.2942 69.7962 67.3217 71.1509C67.9892 72.0312 68.1268 75.2908 68.141 90.5928L68.1585 108.977H39.5672H10.9759L10.6307 95.4953C10.4406 88.08 10.4925 79.1475 10.746 75.6455C11.1393 70.208 11.4206 68.9126 12.6731 66.7811C14.3687 63.8957 17.414 61.6966 21.0734 60.7139C22.8154 60.2465 28.2478 60.0134 37.9886 59.9883L52.338 59.9519L51.9879 61.3436ZM83.6808 62.3067C87.2008 64.2579 87.9055 66.3235 88.4206 76.2005C88.6653 80.8955 88.8772 90.1908 88.8909 96.8572L88.916 108.977H79.0835H69.251V91.0444V73.1119L70.8821 72.7546C72.9092 72.3106 74.1083 70.6252 76.1141 65.3991C76.9766 63.1521 77.9358 61.1274 78.2461 60.8997C79.0125 60.3375 81.1057 60.8795 83.6808 62.3067ZM118.996 64.8735C119.725 65.2629 120.052 66.0163 120.052 67.3057C120.052 68.595 119.725 69.3484 118.996 69.7379C115.577 71.5622 112.413 68.0988 114.948 65.306C115.961 64.1887 117.42 64.033 118.996 64.8735ZM36.145 81.9153L40.4571 85.8711L36.2815 89.3726C33.9851 91.2988 32.106 93.0865 32.106 93.3453C32.106 94.1608 33.051 93.5496 37.2795 90.0001L41.3922 86.5476L45.505 90.0001C49.787 93.5942 50.6785 94.1635 50.6785 93.3017C50.6785 93.019 48.807 91.2252 46.5199 89.3154L42.3613 85.8433L46.1102 82.4448C48.1723 80.5758 50.0438 79.0402 50.2688 79.032C50.8806 79.0102 50.7643 77.9279 50.1497 77.9279C49.8591 77.9279 47.7834 79.5261 45.5366 81.48L41.4529 85.0317L37.3691 81.48C31.7974 76.6341 30.7824 76.9953 36.145 81.9153ZM125.265 110.203C125.146 110.578 124.406 114.106 123.621 118.043C122.837 121.981 121.623 127.563 120.924 130.449C120.224 133.334 119.851 135.818 120.095 135.968C120.661 136.317 121.249 134.199 123.619 123.26C125.764 113.357 126.386 109.522 125.845 109.522C125.645 109.522 125.383 109.829 125.265 110.203ZM49.586 142.206V174.345H47.401H45.216V142.206V110.067H47.401H49.586V142.206ZM90.3783 111.545C89.9719 112.201 96.947 119.126 97.479 118.596C97.6986 118.377 96.2625 116.586 94.2868 114.616C92.3115 112.646 90.5526 111.264 90.3783 111.545ZM69.6257 112.626C69.2177 113.285 91.4785 135.474 92.0133 134.941C92.2367 134.718 87.3614 129.492 81.18 123.328C74.9981 117.163 69.7989 112.348 69.6257 112.626ZM113.585 133.281C111.692 135.845 111.661 137.505 113.55 135.116C116.378 131.54 116.839 130.767 116.129 130.788C115.733 130.799 114.588 131.921 113.585 133.281ZM69.251 140.491C69.251 141.333 77.6004 150.345 78.0964 150.039C78.5613 149.752 77.3694 148.265 72.1456 142.614C69.7273 139.998 69.251 139.649 69.251 140.491ZM62.696 149.555C62.696 149.91 73.4451 155.279 74.1574 155.279C75.6973 155.279 74.2197 154.191 69.517 151.862C64.8094 149.53 62.696 148.815 62.696 149.555ZM155.346 159.773C154.511 165.241 153.71 170.144 153.564 170.668C153.419 171.192 153.558 171.621 153.873 171.621C154.573 171.621 154.677 171.157 156.195 161.271L157.409 153.373L159.555 162.361C161.772 171.646 161.892 172.024 162.441 171.476C162.86 171.058 157.769 149.832 157.251 149.832C157.037 149.832 156.18 154.305 155.346 159.773ZM115.682 150.955C115.682 151.273 114.822 154.513 113.77 158.155C112.719 161.797 111.859 165.171 111.859 165.653C111.859 166.149 113.625 167.644 115.93 169.101C121.481 172.607 127.154 178.113 127.154 179.995C127.154 180.913 126.856 181.426 126.322 181.426C124.979 181.426 118.99 178.486 114.873 175.807C112.776 174.442 110.959 173.426 110.835 173.549C110.712 173.672 111.843 175.556 113.348 177.736C118.166 184.712 119.451 188.145 117.523 188.882C117.033 189.07 115.861 188.809 114.92 188.304C112.855 187.195 106.91 181.641 103.766 177.885C100.984 174.561 100.918 174.986 102.873 183.621C104.524 190.915 104.493 193.604 102.755 193.85C101.764 193.991 100.45 192.323 94.6036 183.5C90.77 177.716 87.5941 172.921 87.5449 172.845C87.4963 172.769 85.0196 174.056 82.0409 175.705C75.7629 179.181 73.532 179.938 71.6627 179.23C69.8579 178.545 69.9387 176.417 71.8457 174.433C72.6716 173.573 76.4298 170.153 80.1968 166.831L87.0462 160.793L88.3053 155.585L89.5644 150.377H102.623C111.467 150.377 115.682 150.563 115.682 150.955ZM70.6166 159.955C70.0158 160.047 67.8652 160.279 65.837 160.468C63.8087 160.658 62.1498 161.06 62.1498 161.361C62.1498 161.71 63.6825 161.785 66.3832 161.569C72.3253 161.091 74.1673 160.756 74.1673 160.157C74.1673 159.659 72.9671 159.591 70.6166 159.955ZM140.673 170.937C141.037 181.175 140.107 185.545 136.367 191.175C135.527 192.441 135.387 192.944 135.926 192.767C136.358 192.625 137.257 191.708 137.922 190.73C141.165 185.957 142.558 178.127 141.814 168.845C141.144 160.486 140.353 161.937 140.673 170.937ZM108.854 168.353C109.32 169.251 109.947 169.987 110.248 169.987C110.548 169.987 110.413 169.251 109.947 168.353C109.481 167.454 108.854 166.718 108.553 166.718C108.253 166.718 108.388 167.454 108.854 168.353ZM137.122 172.574C137.134 178.23 136.124 183.276 134.172 187.31C132.788 190.17 133.218 190.964 134.78 188.433C137.166 184.567 139.024 174.858 138.334 169.857C137.737 165.533 137.108 166.942 137.122 172.574ZM99.2948 169.734C99.2948 169.894 99.6919 170.63 100.177 171.368C101.44 173.291 102.278 173.032 101.12 171.076C100.263 169.63 99.2948 168.918 99.2948 169.734Z" fill="black"/>
</svg>
